<svg enable-background="new 0 0 800 800" viewBox="0 0 800 800" xmlns="http://www.w3.org/2000/svg"><path d="m400.24-.38v800h-.01c-220.92 0-400-179.09-400-400s179.08-400 400-400h.01z" fill="#454d51"/><path d="m800.23 399.62c0 220.91-179.08 399.99-399.99 400v-800c220.91.02 399.99 179.09 399.99 400z" fill="#27323a"/><g stroke-linecap="round" stroke-miterlimit="10" stroke-width="10"><path d="m405.26 628.62s0-160.44 0-175c0-89 20.21-227 182-227 6 0-12 255-182 227" fill="#4aa520" stroke="#4aa520"/><path d="m395.27 458.37s8.79-110.36-173.02-129.17c.01 0 26.14 155.04 173.02 129.17z" fill="#88d859" stroke="#88d859"/></g></svg>