<svg enable-background="new 0 0 800 800" viewBox="0 0 800 800" xmlns="http://www.w3.org/2000/svg"><path d="m400.01 0v800h-.01c-187.18 0-344.33-128.57-387.95-302.21-7.87-31.29-12.05-64.05-12.05-97.79 0-29.29 3.15-57.84 9.13-85.34 39.09-179.91 199.24-314.66 390.87-314.66z" fill="#454d51"/><path d="m800 400c0 21.65-1.72 42.89-5.04 63.6-30.45 190.68-195.68 336.39-394.95 336.4v-800c183.36.01 337.91 123.39 385.14 291.66 9.68 34.45 14.85 70.79 14.85 108.34z" fill="#27323a"/><path d="m261.56 461.38-58.03 28.37c-.14.07-.29.14-.43.21.36-.2.72-.39 1.09-.57l55.94-27.36c.47-.23.95-.45 1.43-.65z" fill="none" stroke="#ccfffc" stroke-miterlimit="10"/><path d="m261.56 461.38-58.03 28.37c-.14.07-.29.14-.43.21.36-.2.72-.39 1.09-.57l55.94-27.36c.47-.23.95-.45 1.43-.65z" fill="none" stroke="#ccfffc" stroke-miterlimit="10"/><path d="m330.79 556.56c-.93.62-1.9 1.18-2.93 1.68l-36.55 17.88c.93-.62 1.91-1.19 2.94-1.69z" fill="none" stroke="#ccfffc" stroke-miterlimit="10"/><path d="m330.79 556.56c-.93.62-1.9 1.18-2.93 1.68l-36.55 17.88c.93-.62 1.91-1.19 2.94-1.69z" fill="none" stroke="#ccfffc" stroke-miterlimit="10"/><path d="m800 400c0 21.65-1.72 42.89-5.04 63.6l-136.7-.94-112 59-98.27-130.16-12.71 4.39-35.02 12.11v-98.65l28.77-9.95c6.73-3.24 21.14-6.78 21.73-7.24.14-.11 334.39-.5 334.39-.5 9.68 34.45 14.85 70.79 14.85 108.34z" fill="#ffa34d"/><path d="m280.67 383.91c0 5.06.83 10.2 2.58 15.25 8.42 24.33 34.96 37.23 59.29 28.81l57.47-19.88.25-.09v177.66l-.25-.11-10.1-4.3c1.94-6.1 1.61-12.91-1.42-19.11l-2-4.1c-6.26-12.8-21.72-18.11-34.52-11.84l-20.62 10.09h-.01l-.09-.04c7.06-4.9 11.08-12.91 11.08-21.21 0-3.81-.84-7.67-2.63-11.32-7.36-15.07-25.55-21.31-40.62-13.94l-35.79 17.5-.08-.04 23.25-11.37c13.66-6.68 19.32-23.17 12.64-36.83l-2.14-4.37c-6.44-13.17-22.01-18.91-35.36-13.31l.14-.07c13.23-6.48 18.71-22.44 12.24-35.67l-1.15-2.35c-6.47-13.23-22.44-18.71-35.67-12.23l-58.21 28.46c-13.22 6.47-18.7 22.44-12.23 35.67l1.14 2.35c6.4 13.09 22.1 18.58 35.24 12.44-3.64 1.98-6.66 4.68-8.98 7.83h-182.07c-7.87-31.29-12.05-64.05-12.05-97.79 0-29.29 3.15-57.84 9.13-85.34h236.13l154-35s.26-.04.75-.09c.08-.01.16-.02.25-.03v29.81l-.25.09-87.95 30.43c-19.28 6.67-31.39 24.73-31.39 44.04z" fill="#ffdf43"/><path d="m450.76 292.16c-.43.3-19.06 6.31-21.73 7.24l-28.77 9.95v-29.81c4.98-.52 27.65-2.12 50.5 12.62z" fill="#ffcc40"/><g fill="#f9be62"><path d="m261.74 461.29-.14.07c-.01.01-.03.02-.04.02-.48.2-.96.42-1.43.65l-55.94 27.36c-.37.18-.73.37-1.09.57-13.14 6.14-28.84.65-35.24-12.44l-1.14-2.35c-6.47-13.23-.99-29.2 12.23-35.67l58.21-28.46c13.23-6.48 29.2-1 35.67 12.23l1.15 2.35c6.47 13.23.99 29.19-12.24 35.67z"/><path d="m286.46 515.87-23.25 11.37-28.32 13.85c-16.07 7.86-35.47 1.2-43.34-14.87-1.9-3.89-2.8-8.01-2.8-12.07 0-5.88 1.89-11.63 5.37-16.36 2.32-3.15 5.34-5.85 8.98-7.83.14-.07.29-.14.43-.21l58.03-28.37c.01 0 .03-.01.04-.02 13.35-5.6 28.92.14 35.36 13.31l2.14 4.37c6.68 13.66 1.02 30.15-12.64 36.83z"/><path d="m342.33 535.04c0 8.3-4.02 16.31-11.08 21.21-.15.11-.3.21-.46.31l-36.54 17.87c-1.03.5-2.01 1.07-2.94 1.69l-16.77 8.2c-15.07 7.37-33.25 1.13-40.62-13.94-1.79-3.65-2.63-7.52-2.63-11.33 0-9.54 5.32-18.72 14.47-23.2l17.53-8.57 35.79-17.5c15.07-7.37 33.26-1.13 40.62 13.94 1.79 3.65 2.63 7.51 2.63 11.32z"/><path d="m389.91 581.25c-2.05 6.5-6.66 12.18-13.26 15.41l-53.62 26.23c-15.07 7.37-33.26 1.13-40.63-13.94-1.78-3.65-2.63-7.51-2.63-11.32 0-8.47 4.19-16.65 11.54-21.51l36.55-17.88c1.03-.5 2-1.06 2.93-1.68l.55-.27h.01l20.62-10.09c12.8-6.27 28.26-.96 34.52 11.84l2 4.1c3.03 6.2 3.36 13.01 1.42 19.11z"/><path d="m400.26 309.35v98.65l-57.72 19.97c-24.33 8.42-50.87-4.48-59.29-28.81-1.75-5.05-2.58-10.19-2.58-15.25 0-19.31 12.11-37.37 31.39-44.04z"/></g><path d="m546.26 521.66-92.62 40.6-53.38 23.4v-177.66l35.02-12.11 12.71-4.39z" fill="#ffcc40"/></svg>