<svg enable-background="new 0 0 800 800" viewBox="0 0 800 800" xmlns="http://www.w3.org/2000/svg"><path d="m400.02 0v800h-.01c-220.92 0-400-179.09-400-400s179.08-400 400-400z" fill="#454d51"/><path d="m800.01 400c0 220.91-179.08 399.99-399.99 400v-800c220.9.01 399.99 179.09 399.99 400z" fill="#27323a"/><path d="m400 345.43v259.14c-3.51 0-7.01-1.01-10.06-3.01l-169.67-111.21c-11.06-7.25-11.06-23.46 0-30.71l169.67-111.21c3.05-2 6.55-3 10.06-3z" fill="#404068"/><path d="m579.74 490.35-169.67 111.21c-3.06 2.01-6.57 3.01-10.07 3.01v-259.14c3.5 0 7.01 1 10.07 3l169.67 111.21c11.06 7.25 11.06 23.46 0 30.71z" fill="#32325d"/><path d="m400 295.43v259.14c-3.51 0-7.01-1.01-10.06-3.01l-169.67-111.21c-11.06-7.25-11.06-23.46 0-30.71l169.67-111.21c3.05-2 6.55-3 10.06-3z" fill="#2563ef"/><path d="m579.74 440.35-169.67 111.21c-3.06 2.01-6.57 3.01-10.07 3.01v-259.14c3.5 0 7.01 1 10.07 3l169.67 111.21c11.06 7.25 11.06 23.46 0 30.71z" fill="#1f55e6"/><path d="m400 245.43v259.14c-3.51 0-7.01-1.01-10.06-3.01l-169.67-111.21c-11.06-7.25-11.06-23.46 0-30.71l169.67-111.21c3.05-2 6.55-3 10.06-3z" fill="#14bfdb"/><path d="m579.74 390.35-169.67 111.21c-3.06 2.01-6.57 3.01-10.07 3.01v-259.14c3.5 0 7.01 1 10.07 3l169.67 111.21c11.06 7.25 11.06 23.46 0 30.71z" fill="#00a6ca"/><path d="m400 195.43v259.14c-3.51 0-7.01-1.01-10.06-3.01l-169.67-111.21c-11.06-7.25-11.06-23.46 0-30.71l169.67-111.21c3.05-2 6.55-3 10.06-3z" fill="#fcc844"/><path d="m579.74 340.35-169.67 111.21c-3.06 2.01-6.57 3.01-10.07 3.01v-259.14c3.5 0 7.01 1 10.07 3l169.67 111.21c11.06 7.25 11.06 23.46 0 30.71z" fill="#f7ba06"/></svg>