<svg enable-background="new 0 0 800 800" viewBox="0 0 800 800" xmlns="http://www.w3.org/2000/svg"><path d="m400.01 0v800h-.01c-187.18 0-344.33-128.57-387.95-302.21-7.87-31.29-12.05-64.05-12.05-97.79 0-29.29 3.15-57.84 9.13-85.34 39.09-179.91 199.24-314.66 390.87-314.66z" fill="#454d51"/><path d="m800 400c0 21.65-1.72 42.89-5.04 63.6-30.45 190.68-195.68 336.39-394.95 336.4v-800c183.36.01 337.91 123.39 385.14 291.66 9.68 34.45 14.85 70.79 14.85 108.34z" fill="#27323a"/><path d="m400.01 211.25v311.19l-136.59.64c-51.84 0-93.88-37.41-93.88-83.55 0-43.21 36.86-78.76 84.12-83.11-.56-4.65-.85-9.38-.85-14.17-.01-72.35 65.9-131 147.2-131z" fill="#98e5e3"/><path d="m654.9 425.91c0 52.93-48.22 95.84-107.69 95.84l-147.2.69v-311.19c76.69 0 139.67 52.19 146.57 118.83.21-.01.42-.01.63-.01 59.47 0 107.69 42.91 107.69 95.84z" fill="#6de2e2"/><path d="m342.23 420.47c0 31.86 25.92 57.78 57.78 57.78v24c-45.17 0-81.78-36.61-81.78-81.78s36.61-81.78 81.78-81.78v24c-31.86 0-57.78 25.92-57.78 57.78z" fill="#646a6d"/><path d="m481.79 420.47c0 45.17-36.61 81.78-81.78 81.78v-24c31.86 0 57.78-25.92 57.78-57.78s-25.92-57.78-57.78-57.78v-24c45.17 0 81.78 36.61 81.78 81.78z" fill="#454d51"/><path d="m483.81 431.95v117.33c0 6.34-6.14 11.48-13.72 11.48h-70.08v-140.29h70.08c7.58 0 13.72 5.14 13.72 11.48z" fill="#f59d00"/><path d="m400.01 420.47v140.29h-70.09c-7.57 0-13.71-5.14-13.71-11.48v-117.33c0-6.34 6.14-11.48 13.71-11.48z" fill="#ffc62d"/><path d="m412.6 492.47c0 6.95-5.64 12.59-12.59 12.59v-25.18c6.95 0 12.59 5.63 12.59 12.59z" fill="#454d51"/><path d="m400.01 479.88v25.18c-6.95 0-12.59-5.64-12.59-12.59 0-6.96 5.64-12.59 12.59-12.59z" fill="#646a6d"/></svg>