<svg enable-background="new 0 0 800 800" viewBox="0 0 800 800" xmlns="http://www.w3.org/2000/svg"><path d="m400.01 0v800h-.01c-220.92 0-400-179.09-400-400s179.08-400 400-400z" fill="#454d51"/><path d="m800 400c0 220.91-179.08 399.99-399.99 400v-800c220.91.01 399.99 179.09 399.99 400z" fill="#27323a"/><path d="m400 657.06c-.09-.03-.18-.08-.27-.12v-513.98c.03.05.12.17.27.34.19-.23.29-.36.29-.36v.71c6.73 8.08 73.35 84.17 225.15 125.18.76.21-17.45 298.9-225.44 388.23z" fill="#aec8ce"/><path d="m399.73 142.96v513.97c-207.73-89.45-225.93-387.89-225.17-388.1 151.8-41.01 218.41-117.1 225.15-125.18v-.71s.01.01.02.02z" fill="#ebeded"/><path d="m400 628.32c-.08-.03-.16-.07-.24-.11v-456.51c.03.04.11.15.24.3.17-.2.26-.32.26-.32v.63c5.98 7.18 65.15 74.76 199.98 111.19.68.18-15.5 265.48-200.24 344.82z" fill="#13948d"/><path d="m399.76 171.7v456.52c-184.51-79.46-200.68-344.54-200-344.72 134.83-36.43 194-104.01 199.98-111.19v-.63s.01.01.02.02z" fill="#6abfb9"/><path d="m399.86 466.49c-2.56 0-5.12-.98-7.07-2.93l-52.1-52.1c-3.9-3.91-3.9-10.24 0-14.14 3.91-3.91 10.24-3.91 14.14 0l52.1 52.1c3.91 3.91 3.91 10.24 0 14.14-1.95 1.95-4.51 2.93-7.07 2.93z" fill="#ebeded"/><path d="m399.76 466.54c0-3.15 0-24.15 0-24.15l86-86c3.91-3.9 10.24-3.9 14.14 0 3.91 3.91 3.91 10.24 0 14.14l-93.08 93.07c-1.94 1.96-4.5 2.94-7.06 2.94z" fill="#dae7ea"/></svg>