<svg enable-background="new 0 0 800 800" viewBox="0 0 800 800" xmlns="http://www.w3.org/2000/svg"><path d="m400.01 0v800h-.01c-220.92 0-400-179.09-400-400s179.08-400 400-400z" fill="#454d51"/><path d="m800 400c0 220.91-179.08 399.99-399.99 400v-800c220.91.01 399.99 179.09 399.99 400z" fill="#27323a"/><path d="m400 177.07v39.5h-40c.27-21.86 18.08-39.5 40-39.5z" fill="#ffe102"/><path d="m440 216.57h-40v-39.5c21.92 0 39.73 17.64 40 39.5z" fill="#ecb302"/><path d="m399.5 529.57v93.36c-2.75 0-4.99-2.23-4.99-4.98l-38-88.38z" fill="#ffe102"/><path d="m359.5 212.57v13h-12.5v94.5h-.02c.04.61.07 1.09-.35 2.36-.86 2.56-3.14 4.52-5.83 4.64-3.72.16-6.79-2.81-6.79-6.49 0-.17.01-.33.02-.5h-.03v-101c0-3.59 2.91-6.5 6.5-6.5h19z" fill="#ffe102"/><path d="m399.5 206.57v328h-38.46c-3.61 0-6.54-2.93-6.54-6.54v-313.93c0-4.16 3.37-7.53 7.53-7.53z" fill="#6abfb9"/><path d="m442.49 529.57-38 88.38c0 2.75-2.24 4.98-4.99 4.98v-93.36z" fill="#ecb302"/><path d="m444.5 214.1v313.94c0 3.61-2.93 6.54-6.54 6.54h-38.46v-328h37.47c4.16-.01 7.53 3.36 7.53 7.52z" fill="#13948d"/></svg>